<mxfile host="app.diagrams.net" modified="2024-06-15T03:12:30.942Z" agent="Mozilla/5.0 (Windows NT 10.0; Win64; x64) AppleWebKit/537.36 (KHTML, like Gecko) Chrome/125.0.0.0 Safari/537.36" etag="ajgpdPz6XfWPlSnz3cMS" version="24.5.4" type="github">
  <diagram name="Page-1" id="eVgmwyL8_yAq4IiZLNAi">
    <mxGraphModel dx="1050" dy="589" grid="1" gridSize="10" guides="1" tooltips="1" connect="1" arrows="1" fold="1" page="1" pageScale="1" pageWidth="850" pageHeight="1100" math="0" shadow="0">
      <root>
        <mxCell id="0" />
        <mxCell id="1" parent="0" />
        <mxCell id="7V5ZasVevH4r_EM7fTKW-6" style="edgeStyle=orthogonalEdgeStyle;rounded=0;orthogonalLoop=1;jettySize=auto;html=1;entryX=0;entryY=0.5;entryDx=0;entryDy=0;" edge="1" parent="1" source="7V5ZasVevH4r_EM7fTKW-1" target="7V5ZasVevH4r_EM7fTKW-2">
          <mxGeometry relative="1" as="geometry">
            <mxPoint x="200" y="410" as="targetPoint" />
            <Array as="points">
              <mxPoint x="210" y="400" />
              <mxPoint x="210" y="400" />
            </Array>
          </mxGeometry>
        </mxCell>
        <mxCell id="7V5ZasVevH4r_EM7fTKW-1" value="Data Cleaning" style="shape=ext;double=1;rounded=1;whiteSpace=wrap;html=1;" vertex="1" parent="1">
          <mxGeometry x="40" y="360" width="120" height="80" as="geometry" />
        </mxCell>
        <mxCell id="7V5ZasVevH4r_EM7fTKW-2" value="Data preprocessing" style="shape=ext;double=1;rounded=1;whiteSpace=wrap;html=1;" vertex="1" parent="1">
          <mxGeometry x="230" y="360" width="120" height="80" as="geometry" />
        </mxCell>
        <mxCell id="7V5ZasVevH4r_EM7fTKW-3" value="Model building and Training" style="shape=ext;double=1;rounded=1;whiteSpace=wrap;html=1;" vertex="1" parent="1">
          <mxGeometry x="630" y="360" width="120" height="80" as="geometry" />
        </mxCell>
        <mxCell id="7V5ZasVevH4r_EM7fTKW-4" value="Feature Engineering" style="shape=ext;double=1;rounded=1;whiteSpace=wrap;html=1;" vertex="1" parent="1">
          <mxGeometry x="425" y="360" width="120" height="80" as="geometry" />
        </mxCell>
        <mxCell id="7V5ZasVevH4r_EM7fTKW-7" style="edgeStyle=orthogonalEdgeStyle;rounded=0;orthogonalLoop=1;jettySize=auto;html=1;" edge="1" parent="1">
          <mxGeometry relative="1" as="geometry">
            <mxPoint x="430" y="401" as="targetPoint" />
            <mxPoint x="352" y="401" as="sourcePoint" />
            <Array as="points">
              <mxPoint x="422" y="401" />
            </Array>
          </mxGeometry>
        </mxCell>
        <mxCell id="7V5ZasVevH4r_EM7fTKW-8" style="edgeStyle=orthogonalEdgeStyle;rounded=0;orthogonalLoop=1;jettySize=auto;html=1;" edge="1" parent="1">
          <mxGeometry relative="1" as="geometry">
            <mxPoint x="626" y="402" as="targetPoint" />
            <mxPoint x="548" y="402" as="sourcePoint" />
            <Array as="points">
              <mxPoint x="618" y="402" />
            </Array>
          </mxGeometry>
        </mxCell>
      </root>
    </mxGraphModel>
  </diagram>
</mxfile>
